<svg fill="#000000" version="1.1" id="Layer_1" xmlns="http://www.w3.org/2000/svg" xmlns:xlink="http://www.w3.org/1999/xlink" width="256px" height="256px" viewBox="0 0 72.00 72.00" enable-background="new 0 0 72 72" xml:space="preserve" stroke="#000000" stroke-width="1.0799999999999998"><g id="SVGRepo_bgCarrier" stroke-width="0"></g><g id="SVGRepo_tracerCarrier" stroke-linecap="round" stroke-linejoin="round"></g><g id="SVGRepo_iconCarrier"> <g> <path d="M42.834,8.709c-10.745,0-20.313,6.201-24.723,15.907c-4.552,0.568-8.148,4.259-8.57,8.854C4.925,36.373,2,41.623,2,47.166 c0,8.891,7.178,16.125,16,16.125h25c0.184,0,0.455-0.027,0.752-0.146C58.275,62.656,70,50.539,70,35.875 C70,20.896,57.813,8.709,42.834,8.709z M43.168,59.158c-0.177,0-0.434,0.025-0.718,0.133H18c-6.617,0-12-5.439-12-12.125 c0-4.48,2.528-8.703,6.443-10.753c0.679-0.357,1.095-1.07,1.07-1.837l-0.013-0.2c0-3.217,2.617-5.834,5.751-5.836 c0.05,0.002,0.161,0.009,0.21,0.008c0.816,0,1.553-0.497,1.857-1.258c3.538-8.857,11.984-14.581,21.516-14.581 C55.607,12.709,66,23.102,66,35.875C66,48.549,55.746,58.994,43.168,59.158z"></path> <path d="M61.741,32.416c-0.058-0.549-0.558-0.946-1.099-0.883c-0.551,0.057-0.949,0.564-0.891,1.113 c0.055,0.51,0.081,1.063,0.082,1.588c0.001,0.553,0.448,1.057,1,1.057c0.001,0,0.002,0,0.003,0c0.552,0,0.999-0.504,0.998-1.057 C61.834,33.641,61.803,32.992,61.741,32.416z"></path> <path d="M59.783,26.149c-2.938-5.352-8.551-8.677-14.65-8.677c-0.553,0-1,0.447-1,1c0,0.553,0.447,1,1,1 c5.369,0,10.311,2.927,12.896,7.64c0.183,0.331,0.523,0.519,0.878,0.519c0.161,0,0.327-0.04,0.479-0.124 C59.871,27.242,60.049,26.633,59.783,26.149z"></path> <path d="M45.893,36.29H42c-0.553,0-1,0.446-1,1s0.447,1,1,1h3.893c0.683,0,1.18,0.187,1.332,0.5 c0.166,0.342-0.016,0.916-0.481,1.513l-7.575,9.893c-0.496,0.631-1.139,0.977-1.813,0.977c-0.709,0-1.39-0.371-1.914-1.041 l-7.587-9.805c-0.462-0.59-0.644-1.174-0.472-1.525c0.155-0.32,0.651-0.51,1.328-0.51H33c0.553,0,1.37-0.447,1.37-1v-4.175 c0-2.166,1.366-3.862,3.332-3.862c1.534,0,2.516,0.793,3.079,2.232c0.201,0.514,0.803,0.768,1.32,0.567 c0.512-0.201,0.813-0.781,0.611-1.296c-0.857-2.194-2.676-3.504-5.021-3.504c-3.088,0-5.321,2.575-5.321,5.862v3.175h-3.659h-0.005 c-1.482,0-2.617,0.597-3.122,1.635c-0.525,1.078-0.27,2.404,0.693,3.632l7.586,9.805c0.903,1.15,2.175,1.811,3.491,1.811 c1.301,0,2.504-0.617,3.395-1.751l7.576-9.896c0.964-1.228,1.219-2.545,0.699-3.61C48.521,36.882,47.379,36.29,45.893,36.29z"></path> <path d="M40.891,33.68c-0.181,0.19-0.291,0.45-0.291,0.71c0,0.26,0.11,0.521,0.291,0.71c0.189,0.181,0.449,0.29,0.709,0.29 s0.521-0.109,0.711-0.29c0.189-0.189,0.289-0.45,0.289-0.71c0-0.26-0.1-0.52-0.289-0.71C41.93,33.31,41.26,33.31,40.891,33.68z"></path> </g> </g></svg>